<svg width="191" height="182" viewBox="0 0 191 182" fill="none" xmlns="http://www.w3.org/2000/svg">
<path d="M191 91C191 141.258 148.243 182 95.5 182C42.7568 182 0 141.258 0 91C0 40.7421 42.7568 0 95.5 0C148.243 0 191 40.7421 191 91Z" fill="#CC6700"/>
<path d="M94.0001 95.3258C105.317 95.3258 114.492 86.5224 114.492 75.6629C114.492 64.8034 105.317 56 94.0001 56C82.6828 56 73.5083 64.8034 73.5083 75.6629C73.5083 86.5224 82.6828 95.3258 94.0001 95.3258Z" fill="#CC6700"/>
<path d="M59 126C62.6577 120.239 67.7984 115.477 73.9279 112.174C80.0574 108.87 86.9695 107.134 93.9999 107.134C101.03 107.134 107.942 108.87 114.072 112.174C120.202 115.477 125.342 120.239 129 126" fill="#CC6700"/>
<path d="M59 126C62.6577 120.239 67.7984 115.477 73.9279 112.174C80.0574 108.87 86.9695 107.134 93.9999 107.134C101.03 107.134 107.942 108.87 114.072 112.174C120.202 115.477 125.342 120.239 129 126M94.0001 95.3258C105.317 95.3258 114.492 86.5224 114.492 75.6629C114.492 64.8034 105.317 56 94.0001 56C82.6828 56 73.5083 64.8034 73.5083 75.6629C73.5083 86.5224 82.6828 95.3258 94.0001 95.3258Z" stroke="white" stroke-width="1.5" stroke-linecap="round" stroke-linejoin="round"/>
</svg>
