<svg width="218" height="216" viewBox="0 0 218 216" fill="none" xmlns="http://www.w3.org/2000/svg">
<path d="M96.292 75C73.3805 80.1757 59.564 77.9001 33.292 64.5M96.292 75V122M96.292 75C96.292 104 84.792 104 64.792 93.25M33.292 64.5C57.292 93.25 41.792 126 1.29199 129M33.292 64.5L64.792 93.25M1.29199 129C39.792 135.5 59.792 162.5 33.292 195M1.29199 129H48.792M33.292 195C56.792 177 85.292 180 96.292 203V170.25M33.292 195L64.792 166.25M96.292 129V122M96.292 129V137.5M96.292 129H48.792M96.292 122L64.792 93.25M96.292 137.5V170.25M96.292 137.5L64.792 166.25M96.292 170.25C96.292 157 79.292 155 64.792 166.25M64.792 166.25C78.792 149 71.292 134.5 48.792 129M48.792 129C72.292 125 78.292 110.5 64.792 93.25" stroke="white" stroke-width="2"/>
<path d="M33.8353 63.654C33.6319 63.4839 33.3697 63.4009 33.1063 63.4235C32.843 63.4461 32.6001 63.5722 32.4311 63.7743C32.2621 63.9764 32.1809 64.2377 32.2052 64.5009C32.2296 64.7641 32.3576 65.0075 32.561 65.1777L33.1982 64.4158L33.8353 63.654Z" fill="white"/>
<path d="M1.55073 127.998C1.18134 127.969 0.818761 128.049 0.542752 128.219C0.266743 128.388 0.0999163 128.635 0.0789717 128.904C0.0580271 129.173 0.18468 129.443 0.431069 129.653C0.677458 129.864 1.0234 129.998 1.39279 130.027L1.47176 129.013L1.55073 127.998Z" fill="white"/>
<path d="M32.8165 193.996C32.5318 194.274 32.3363 194.619 32.2729 194.957C32.2096 195.295 32.2835 195.597 32.4785 195.797C32.6736 195.997 32.9737 196.078 33.3128 196.024C33.652 195.969 34.0025 195.782 34.2871 195.505L33.5518 194.751L32.8165 193.996Z" fill="white"/>
<path d="M59.7924 52.3377L43.5566 43.4094V74.1004L59.7924 83.8657V52.3377Z" fill="#CC6700"/>
<path d="M200.559 61.824V58.1969C200.559 58.1969 200.559 51.5007 193.561 47.3155C191.299 45.9629 188.014 45.776 184.604 46.1427V50.6636V58.1969L200.559 61.824Z" fill="#CC6700"/>
<path d="M140.655 158.082C140.676 158.77 140.705 159.441 140.74 160.096C140.771 160.665 140.808 161.222 140.851 161.766C142.297 180.308 150.553 184.388 177.325 175.66C177.325 175.66 186.563 172.591 193.561 169.522C200.559 166.452 200.559 156.408 200.559 156.408V146.643L184.604 141.063V152.781C184.604 159.962 179.845 162.267 179.845 162.267C179.845 162.267 172.401 165.311 164.449 167.628C162.77 168.118 161.069 168.574 159.41 168.964C151.292 170.867 145.18 170.405 143.734 168.964C141.697 166.933 141.083 164.291 140.851 161.766C140.799 161.2 140.766 160.641 140.74 160.096C140.708 159.396 140.688 158.719 140.655 158.082Z" fill="#CC6700"/>
<path d="M195.801 1L43.5566 43.4094L59.7924 52.3377L216.795 7.97523L195.801 1Z" fill="#CC6700"/>
<path d="M200.559 146.643L216.795 141.063L200.559 134.366L184.604 141.063L200.559 146.643Z" fill="white"/>
<path d="M216.795 7.97523L59.7924 52.3377V83.8657L96.4267 74.9374L113.782 69.6362V215L216.795 182.356V141.063L200.559 146.643V156.408C200.559 156.408 200.559 166.452 193.561 169.522C186.563 172.591 177.325 175.66 177.325 175.66C150.553 184.388 142.297 180.308 140.851 161.766C140.799 161.2 140.766 160.641 140.74 160.096C140.705 159.441 140.676 158.77 140.655 158.082V83.8657C140.655 65.4807 142.062 58.7803 163.329 51.5737C170.224 49.2372 177.35 46.9224 184.604 46.1427C188.014 45.776 191.299 45.9629 193.561 47.3155C200.559 51.5007 200.559 58.1969 200.559 58.1969V61.824L216.795 54.8488V7.97523Z" fill="white"/>
<path d="M113.782 215V69.6362L96.4267 74.9374V203.282L113.782 215Z" fill="#CC6700"/>
<path d="M43.5566 43.4094L195.801 1L216.795 7.97523M43.5566 43.4094L59.7924 52.3377M43.5566 43.4094V74.1004L59.7924 83.8657M59.7924 52.3377L216.795 7.97523M59.7924 52.3377V83.8657M216.795 7.97523V54.8488L200.559 61.824M216.795 141.063V182.356L113.782 215M216.795 141.063L200.559 146.643M216.795 141.063L200.559 134.366L184.604 141.063M113.782 215V69.6362L96.4267 74.9374M113.782 215L96.4267 203.282V74.9374M59.7924 83.8657L96.4267 74.9374M140.655 158.082C140.655 159.317 140.62 156.948 140.655 158.082ZM140.655 158.082V83.8657C140.655 65.4807 142.062 58.7803 163.329 51.5737C170.224 49.2372 177.35 46.9224 184.604 46.1427M140.655 158.082C140.676 158.77 140.705 159.441 140.74 160.096M140.655 158.082C140.688 158.719 140.708 159.396 140.74 160.096M200.559 61.824V58.1969C200.559 58.1969 200.559 51.5007 193.561 47.3155C191.299 45.9629 188.014 45.776 184.604 46.1427M200.559 61.824L184.604 58.1969M200.559 146.643V156.408C200.559 156.408 200.559 166.452 193.561 169.522C186.563 172.591 177.325 175.66 177.325 175.66C150.553 184.388 142.297 180.308 140.851 161.766M200.559 146.643L184.604 141.063M184.604 58.1969C184.604 58.1969 184.604 54.5698 184.604 50.6636M184.604 58.1969V50.6636M184.604 46.1427C184.604 46.1427 184.604 46.7575 184.604 50.6636M184.604 46.1427V50.6636M184.604 141.063C184.604 141.063 184.604 145.6 184.604 152.781M184.604 141.063V152.781M184.604 152.781C184.604 159.962 179.845 162.267 179.845 162.267C179.845 162.267 172.401 165.311 164.449 167.628C162.77 168.118 161.069 168.574 159.41 168.964C151.292 170.867 145.18 170.405 143.734 168.964C141.697 166.933 141.083 164.291 140.851 161.766M140.851 161.766C140.799 161.2 140.766 160.641 140.74 160.096M140.851 161.766C140.808 161.222 140.771 160.665 140.74 160.096" stroke="black"/>
</svg>
